<?xml version="1.0" encoding="UTF-8" standalone="no"?>
<svg
   xmlns:dc="http://purl.org/dc/elements/1.1/"
   xmlns:cc="http://creativecommons.org/ns#"
   xmlns:rdf="http://www.w3.org/1999/02/22-rdf-syntax-ns#"
   xmlns:svg="http://www.w3.org/2000/svg"
   xmlns="http://www.w3.org/2000/svg"
   xmlns:sodipodi="http://sodipodi.sourceforge.net/DTD/sodipodi-0.dtd"
   xmlns:inkscape="http://www.inkscape.org/namespaces/inkscape"
   id="Layer_1"
   xml:space="preserve"
   overflow="visible"
   viewBox="0 0 337.52182 127.26541"
   version="1.1"
   enable-background="new 0 0 227.521 85.789"
   inkscape:version="0.48.4 r9939"
   width="100%"
   height="100%"
   sodipodi:docname="Clock Digital.svg"
   style="overflow:visible"><defs
   id="defs13" /><sodipodi:namedview
   pagecolor="#ffffff"
   bordercolor="#666666"
   borderopacity="1"
   objecttolerance="10"
   gridtolerance="10"
   guidetolerance="10"
   inkscape:pageopacity="0"
   inkscape:pageshadow="2"
   inkscape:window-width="1366"
   inkscape:window-height="706"
   id="namedview11"
   showgrid="false"
   inkscape:zoom="1.2570268"
   inkscape:cx="127.78289"
   inkscape:cy="-0.99613139"
   inkscape:window-x="-8"
   inkscape:window-y="-8"
   inkscape:window-maximized="1"
   inkscape:current-layer="Layer_1"
   fit-margin-top="0"
   fit-margin-left="0"
   fit-margin-right="0"
   fit-margin-bottom="0" />
<path
   id="path7389"
   d="m 336.96552,113.94236 c 0,7.0509 -5.71685,12.76675 -12.76675,12.76675 H 13.32305 c -7.0509104,0 -12.76674936,-5.7173 -12.76674936,-12.76675 V 13.323049 c 0,-7.0508998 5.71583896,-12.76674983 12.76674936,-12.76674983 h 310.87572 c 7.0509,0 12.76675,5.71585003 12.76675,12.76674983 V 113.94236 z"
   inkscape:connector-curvature="0"
   style="fill:#042d00;fill-opacity:1;stroke:#000000;stroke-width:1.11260128" />
<path
   id="path7391"
   d="m 326.45266,107.02709 c 0,6.08031 -5.36163,11.01343 -11.97132,11.01343 H 23.03591 c -6.609668,0 -11.966746,-4.93312 -11.966746,-11.01343 V 20.237019 c 0,-6.08173 5.357078,-11.0121298 11.966746,-11.0121298 h 291.44543 c 6.60969,0 11.97132,4.9303998 11.97132,11.0121298 v 86.790071 z"
   inkscape:connector-curvature="0"
   style="fill:#010900;fill-opacity:1;stroke:#000000;stroke-width:1.12765133" />

<metadata
   id="metadata9"><rdf:RDF><cc:Work><dc:format>image/svg+xml</dc:format><dc:type
         rdf:resource="http://purl.org/dc/dcmitype/StillImage" /><cc:license
         rdf:resource="http://creativecommons.org/licenses/publicdomain/" /><dc:publisher><cc:Agent
           rdf:about="http://openclipart.org/"><dc:title>Openclipart</dc:title></cc:Agent></dc:publisher><dc:title>Digital Clock</dc:title><dc:date>2008-09-25T16:49:52</dc:date><dc:description>A collection of digital clocks showing every half hour. Suitable for educational purposes.</dc:description><dc:source>http://openclipart.org/detail/19412/digital-clock-by-manio1-19412</dc:source><dc:creator><cc:Agent><dc:title>manio1</dc:title></cc:Agent></dc:creator><dc:subject><rdf:Bag><rdf:li>cartoon</rdf:li><rdf:li>clip art</rdf:li><rdf:li>clipart</rdf:li><rdf:li>clock</rdf:li><rdf:li>clocks</rdf:li><rdf:li>digital</rdf:li><rdf:li>digital clock</rdf:li><rdf:li>digital clocks</rdf:li><rdf:li>image</rdf:li><rdf:li>media</rdf:li><rdf:li>public domain</rdf:li><rdf:li>sign</rdf:li><rdf:li>svg</rdf:li><rdf:li>time</rdf:li></rdf:Bag></dc:subject></cc:Work><cc:License
       rdf:about="http://creativecommons.org/licenses/publicdomain/"><cc:permits
         rdf:resource="http://creativecommons.org/ns#Reproduction" /><cc:permits
         rdf:resource="http://creativecommons.org/ns#Distribution" /><cc:permits
         rdf:resource="http://creativecommons.org/ns#DerivativeWorks" /></cc:License></rdf:RDF></metadata><path
   sodipodi:type="arc"
   style="fill:#06ff06;fill-opacity:1;stroke:#007b00;stroke-width:0.5;stroke-linecap:round;stroke-linejoin:round;stroke-miterlimit:4;stroke-opacity:1;stroke-dasharray:none"
   id="path4096"
   sodipodi:cx="103.51807"
   sodipodi:cy="30.002602"
   sodipodi:rx="4.4748449"
   sodipodi:ry="4.2759628"
   d="m 107.99291,30.002602 a 4.4748449,4.2759628 0 1 1 -8.949689,0 4.4748449,4.2759628 0 1 1 8.949689,0 z"
   transform="matrix(1,0,-0.23965472,1,57.335382,23.488109)" /><path
   transform="matrix(1,0,-0.23965472,1,52.163948,45.066809)"
   sodipodi:type="arc"
   style="fill:#06ff06;fill-opacity:1;stroke:#007b00;stroke-width:0.5;stroke-linecap:round;stroke-linejoin:round;stroke-miterlimit:4;stroke-opacity:1;stroke-dasharray:none"
   id="path4096-2"
   sodipodi:cx="103.51807"
   sodipodi:cy="30.002602"
   sodipodi:rx="4.4748449"
   sodipodi:ry="4.2759628"
   d="m 107.99291,30.002602 a 4.4748449,4.2759628 0 1 1 -8.949689,0 4.4748449,4.2759628 0 1 1 8.949689,0 z" /><path
   style="fill:#06ff06;fill-opacity:1;stroke:#007b00;stroke-width:0.5;stroke-linecap:round;stroke-linejoin:round;stroke-miterlimit:4;stroke-opacity:1"
   d="m 170.50802,68.470839 -6.24118,26.042363 -4.83682,4 -2.91957,-4 6.24118,-26.042363 4.8368,-4 z"
   id="rect4119"
   inkscape:connector-curvature="0"
   sodipodi:nodetypes="ccccccc" /><path
   style="fill:#06ff06;fill-opacity:1;stroke:#007b00;stroke-width:0.5;stroke-linecap:round;stroke-linejoin:round;stroke-miterlimit:4;stroke-opacity:1"
   d="m 205.99337,68.470839 -6.24118,26.042363 -4.83682,4 -2.91957,-4 6.24118,-26.042363 4.8368,-4 z"
   id="rect4119-7"
   inkscape:connector-curvature="0"
   sodipodi:nodetypes="ccccccc" /><path
   style="fill:#06ff06;fill-opacity:1;stroke:#007b00;stroke-width:0.5;stroke-linecap:round;stroke-linejoin:round;stroke-miterlimit:4;stroke-opacity:1"
   d="m 179.00115,33.031879 -6.24118,26.04236 -4.83683,4 -2.91956,-4 6.24118,-26.04236 4.8368,-4 z"
   id="rect4119-6"
   inkscape:connector-curvature="0"
   sodipodi:nodetypes="ccccccc" /><path
   style="fill:#06ff06;fill-opacity:1;stroke:#007b00;stroke-width:0.5;stroke-linecap:round;stroke-linejoin:round;stroke-miterlimit:4;stroke-opacity:1"
   d="m 214.4865,33.031879 -6.24118,26.04236 -4.83683,4 -2.91956,-4 6.24118,-26.04236 4.8368,-4 z"
   id="rect4119-1"
   inkscape:connector-curvature="0"
   sodipodi:nodetypes="ccccccc" /><path
   style="fill:#06ff06;fill-opacity:1;stroke:#007b00;stroke-width:0.5;stroke-linecap:round;stroke-linejoin:round;stroke-miterlimit:4;stroke-opacity:1"
   d="m 206.04162,32.330199 -26.04237,0 -3.0706,-3.8782 4.92946,-3.87819 26.04237,0 3.07054,3.87819 z"
   id="rect4119-6-4"
   inkscape:connector-curvature="0"
   sodipodi:nodetypes="ccccccc" /><path
   style="fill:#06ff06;fill-opacity:1;stroke:#007b00;stroke-width:0.5;stroke-linecap:round;stroke-linejoin:round;stroke-miterlimit:4;stroke-opacity:1"
   d="m 197.57481,67.659299 -26.04237,0 -3.07058,-3.8782 4.92947,-3.87819 26.04237,0 3.07053,3.87819 z"
   id="rect4119-6-4-2"
   inkscape:connector-curvature="0"
   sodipodi:nodetypes="ccccccc" /><path
   style="fill:#06ff06;fill-opacity:1;stroke:#007b00;stroke-width:0.5;stroke-linecap:round;stroke-linejoin:round;stroke-miterlimit:4;stroke-opacity:1"
   d="m 189.12276,102.92687 -26.04237,0 -3.07054,-3.878203 4.9294,-3.87819 26.04237,0 3.0706,3.87819 z"
   id="rect4119-6-4-3"
   inkscape:connector-curvature="0"
   sodipodi:nodetypes="ccccccc" /><path
   style="fill:#06ff06;fill-opacity:1;stroke:#007b00;stroke-width:0.5;stroke-linecap:round;stroke-linejoin:round;stroke-miterlimit:4;stroke-opacity:1"
   d="m 222.09204,68.470839 -6.24118,26.042364 -4.83681,4 -2.91958,-4 6.24118,-26.042364 4.83681,-4 z"
   id="rect4119-2"
   inkscape:connector-curvature="0"
   sodipodi:nodetypes="ccccccc" /><path
   style="fill:#06ff06;fill-opacity:1;stroke:#007b00;stroke-width:0.5;stroke-linecap:round;stroke-linejoin:round;stroke-miterlimit:4;stroke-opacity:1"
   d="m 257.57739,68.470839 -6.24118,26.042364 -4.83681,4 -2.91958,-4 6.24118,-26.042364 4.83681,-4 z"
   id="rect4119-7-2"
   inkscape:connector-curvature="0"
   sodipodi:nodetypes="ccccccc" /><path
   style="fill:#06ff06;fill-opacity:1;stroke:#007b00;stroke-width:0.5;stroke-linecap:round;stroke-linejoin:round;stroke-miterlimit:4;stroke-opacity:1"
   d="m 230.58515,33.031879 -6.24117,26.04236 -4.83682,4 -2.91957,-4 6.24117,-26.04236 4.83681,-4 z"
   id="rect4119-6-1"
   inkscape:connector-curvature="0"
   sodipodi:nodetypes="ccccccc" /><path
   style="fill:#06ff06;fill-opacity:1;stroke:#007b00;stroke-width:0.5;stroke-linecap:round;stroke-linejoin:round;stroke-miterlimit:4;stroke-opacity:1"
   d="m 266.0705,33.031879 -6.24117,26.04236 -4.83682,4 -2.91957,-4 6.24117,-26.04236 4.83681,-4 z"
   id="rect4119-1-6"
   inkscape:connector-curvature="0"
   sodipodi:nodetypes="ccccccc" /><path
   style="fill:#06ff06;fill-opacity:1;stroke:#007b00;stroke-width:0.5;stroke-linecap:round;stroke-linejoin:round;stroke-miterlimit:4;stroke-opacity:1"
   d="m 257.6256,32.330199 -26.04237,0 -3.07057,-3.8782 4.92943,-3.87819 26.04237,0 3.07057,3.87819 z"
   id="rect4119-6-4-8"
   inkscape:connector-curvature="0"
   sodipodi:nodetypes="ccccccc" /><path
   style="fill:#06ff06;fill-opacity:1;stroke:#007b00;stroke-width:0.5;stroke-linecap:round;stroke-linejoin:round;stroke-miterlimit:4;stroke-opacity:1"
   d="m 249.15882,67.659299 -26.04237,0 -3.07057,-3.8782 4.92943,-3.87819 26.04237,0 3.07057,3.87819 z"
   id="rect4119-6-4-2-5"
   inkscape:connector-curvature="0"
   sodipodi:nodetypes="ccccccc" /><path
   style="fill:#06ff06;fill-opacity:1;stroke:#007b00;stroke-width:0.5;stroke-linecap:round;stroke-linejoin:round;stroke-miterlimit:4;stroke-opacity:1"
   d="m 240.70678,102.92687 -26.04237,0 -3.07057,-3.878202 4.92943,-3.87819 26.04237,0 3.07057,3.87819 z"
   id="rect4119-6-4-3-7"
   inkscape:connector-curvature="0"
   sodipodi:nodetypes="ccccccc" /><path
   style="fill:#06ff06;fill-opacity:1;stroke:#007b00;stroke-width:0.5;stroke-linecap:round;stroke-linejoin:round;stroke-miterlimit:4;stroke-opacity:1"
   d="m 50.325257,68.470839 -6.241174,26.042363 -4.836819,4 -2.919571,-4 6.241174,-26.042363 4.836809,-4 z"
   id="rect4119-18"
   inkscape:connector-curvature="0"
   sodipodi:nodetypes="ccccccc" /><path
   style="fill:#06ff06;fill-opacity:1;stroke:#007b00;stroke-width:0.5;stroke-linecap:round;stroke-linejoin:round;stroke-miterlimit:4;stroke-opacity:1"
   d="m 85.810607,68.470839 -6.241174,26.042363 -4.836819,4 -2.919571,-4 6.241174,-26.042363 4.836809,-4 z"
   id="rect4119-7-9"
   inkscape:connector-curvature="0"
   sodipodi:nodetypes="ccccccc" /><path
   style="fill:#06ff06;fill-opacity:1;stroke:#007b00;stroke-width:0.5;stroke-linecap:round;stroke-linejoin:round;stroke-miterlimit:4;stroke-opacity:1"
   d="m 58.818372,33.031879 -6.241174,26.04236 -4.836819,4 -2.919571,-4 6.241174,-26.04236 4.836809,-4 z"
   id="rect4119-6-2"
   inkscape:connector-curvature="0"
   sodipodi:nodetypes="ccccccc" /><path
   style="fill:#06ff06;fill-opacity:1;stroke:#007b00;stroke-width:0.5;stroke-linecap:round;stroke-linejoin:round;stroke-miterlimit:4;stroke-opacity:1"
   d="m 94.303722,33.031879 -6.241174,26.04236 -4.836819,4 -2.919571,-4 6.241174,-26.04236 4.836809,-4 z"
   id="rect4119-1-7"
   inkscape:connector-curvature="0"
   sodipodi:nodetypes="ccccccc" /><path
   style="fill:#06ff06;fill-opacity:1;stroke:#007b00;stroke-width:0.5;stroke-linecap:round;stroke-linejoin:round;stroke-miterlimit:4;stroke-opacity:1"
   d="m 85.858822,32.330199 -26.04237,0 -3.070571,-3.8782 4.929427,-3.87819 26.04237,0 3.070573,3.87819 z"
   id="rect4119-6-4-9"
   inkscape:connector-curvature="0"
   sodipodi:nodetypes="ccccccc" /><path
   style="fill:#06ff06;fill-opacity:1;stroke:#007b00;stroke-width:0.5;stroke-linecap:round;stroke-linejoin:round;stroke-miterlimit:4;stroke-opacity:1"
   d="m 77.392038,67.659299 -26.04237,0 -3.070571,-3.8782 4.929427,-3.87819 26.04237,0 3.070573,3.87819 z"
   id="rect4119-6-4-2-54"
   inkscape:connector-curvature="0"
   sodipodi:nodetypes="ccccccc" /><path
   style="fill:#06ff06;fill-opacity:1;stroke:#007b00;stroke-width:0.5;stroke-linecap:round;stroke-linejoin:round;stroke-miterlimit:4;stroke-opacity:1"
   d="m 68.939998,102.92687 -26.04237,0 -3.070571,-3.878203 4.929427,-3.87819 26.04237,0 3.070573,3.87819 z"
   id="rect4119-6-4-3-3"
   inkscape:connector-curvature="0"
   sodipodi:nodetypes="ccccccc" /><path
   style="fill:#06ff06;fill-opacity:1;stroke:#007b00;stroke-width:0.5;stroke-linecap:round;stroke-linejoin:round;stroke-miterlimit:4;stroke-opacity:1"
   d="m 101.90926,68.470839 -6.241175,26.042364 -4.836819,4 -2.919571,-4 6.241184,-26.042364 4.836808,-4 z"
   id="rect4119-2-2"
   inkscape:connector-curvature="0"
   sodipodi:nodetypes="ccccccc" /><path
   style="fill:#06ff06;fill-opacity:1;stroke:#007b00;stroke-width:0.5;stroke-linecap:round;stroke-linejoin:round;stroke-miterlimit:4;stroke-opacity:1"
   d="m 137.39459,68.470839 -6.24116,26.042364 -4.83682,4 -2.91957,-4 6.24117,-26.042364 4.83681,-4 z"
   id="rect4119-7-2-3"
   inkscape:connector-curvature="0"
   sodipodi:nodetypes="ccccccc" /><path
   style="fill:#06ff06;fill-opacity:1;stroke:#007b00;stroke-width:0.5;stroke-linecap:round;stroke-linejoin:round;stroke-miterlimit:4;stroke-opacity:1"
   d="m 110.40237,33.031879 -6.24117,26.04236 -4.836819,4 -2.919572,-4 6.241181,-26.04236 4.83681,-4 z"
   id="rect4119-6-1-3"
   inkscape:connector-curvature="0"
   sodipodi:nodetypes="ccccccc" /><path
   style="fill:#06ff06;fill-opacity:1;stroke:#007b00;stroke-width:0.5;stroke-linecap:round;stroke-linejoin:round;stroke-miterlimit:4;stroke-opacity:1"
   d="m 145.88772,33.031879 -6.24118,26.04236 -4.83682,4 -2.91958,-4 6.24118,-26.04236 4.8368,-4 z"
   id="rect4119-1-6-4"
   inkscape:connector-curvature="0"
   sodipodi:nodetypes="ccccccc" /><path
   style="fill:#06ff06;fill-opacity:1;stroke:#007b00;stroke-width:0.5;stroke-linecap:round;stroke-linejoin:round;stroke-miterlimit:4;stroke-opacity:1"
   d="m 137.44283,32.330199 -26.04238,0 -3.07057,-3.8782 4.92942,-3.87819 26.0424,0 3.07054,3.87819 z"
   id="rect4119-6-4-8-1"
   inkscape:connector-curvature="0"
   sodipodi:nodetypes="ccccccc" /><path
   style="fill:#06ff06;fill-opacity:1;stroke:#007b00;stroke-width:0.5;stroke-linecap:round;stroke-linejoin:round;stroke-miterlimit:4;stroke-opacity:1"
   d="m 128.97604,67.659299 -26.04237,0 -3.070576,-3.8782 4.929426,-3.87819 26.04237,0 3.07057,3.87819 z"
   id="rect4119-6-4-2-5-1"
   inkscape:connector-curvature="0"
   sodipodi:nodetypes="ccccccc" /><path
   style="fill:#06ff06;fill-opacity:1;stroke:#007b00;stroke-width:0.5;stroke-linecap:round;stroke-linejoin:round;stroke-miterlimit:4;stroke-opacity:1"
   d="m 120.524,102.92687 -26.04237,0 -3.070571,-3.878202 4.929427,-3.87819 26.042374,0 3.07056,3.87819 z"
   id="rect4119-6-4-3-7-3"
   inkscape:connector-curvature="0"
   sodipodi:nodetypes="ccccccc" /><text
   xml:space="preserve"
   style="font-size:20.36783028px;font-style:normal;font-weight:normal;line-height:125%;letter-spacing:0px;word-spacing:0px;fill:#07ff07;fill-opacity:1;stroke:#007c00;stroke-width:0.25459799;stroke-linecap:round;stroke-linejoin:round;stroke-miterlimit:4;stroke-opacity:1;stroke-dasharray:none;font-family:Sans"
   x="269.31796"
   y="99.974236"
   id="text4328-8"
   sodipodi:linespacing="125%"><tspan
     sodipodi:role="line"
     id="tspan4330-7"
     x="269.31796"
     y="99.974236"
     style="font-style:normal;font-variant:normal;font-weight:bold;font-stretch:normal;opacity:0.95999995;fill:#07ff07;fill-opacity:1;stroke:#007c00;stroke-width:0.25459799;stroke-linecap:round;stroke-linejoin:round;stroke-miterlimit:4;stroke-opacity:1;stroke-dasharray:none;font-family:Arial;-inkscape-font-specification:Arial Bold">PM</tspan></text>
<text
   xml:space="preserve"
   style="font-size:20.36783028px;font-style:normal;font-weight:normal;line-height:125%;letter-spacing:0px;word-spacing:0px;fill:#07ff07;fill-opacity:1;stroke:#007c00;stroke-width:0.25459799;stroke-linecap:round;stroke-linejoin:round;stroke-miterlimit:4;stroke-opacity:1;stroke-dasharray:none;font-family:Sans"
   x="269.50195"
   y="80.604195"
   id="text4328-8-4"
   sodipodi:linespacing="125%"><tspan
     sodipodi:role="line"
     id="tspan4330-7-2"
     x="269.50195"
     y="80.604195"
     style="font-style:normal;font-variant:normal;font-weight:bold;font-stretch:normal;opacity:0.95999995;fill:#07ff07;fill-opacity:1;stroke:#007c00;stroke-width:0.25459799;stroke-linecap:round;stroke-linejoin:round;stroke-miterlimit:4;stroke-opacity:1;stroke-dasharray:none;font-family:Arial;-inkscape-font-specification:Arial Bold">AM</tspan></text>
</svg>